HIERARCHY
ROOT Hips
{
	OFFSET 0.000000 103.266502 0.000000
	CHANNELS 6 Xposition Yposition Zposition Xrotation Yrotation Zrotation 
	JOINT Spine
	{
		OFFSET -0.002400 12.777504 0.315300
		CHANNELS 3 Xrotation Yrotation Zrotation
		JOINT Spine1
		{
			OFFSET -0.002067 5.816869 0.032633
			CHANNELS 3 Xrotation Yrotation Zrotation
			JOINT Spine1_split
			{
				OFFSET -0.002067 5.816869 0.032633
				CHANNELS 3 Xrotation Yrotation Zrotation
				JOINT Spine2
				{
					OFFSET -0.002067 5.816869 0.032633
					CHANNELS 3 Xrotation Yrotation Zrotation
					JOINT Neck
					{
						OFFSET -0.003700 21.199493 -0.826900
						CHANNELS 3 Xrotation Yrotation Zrotation
						JOINT Head
						{
							OFFSET 0.000000 20.442200 4.834800
							CHANNELS 3 Xrotation Yrotation Zrotation
							JOINT HeadTop_End
							{
								OFFSET 0.000000 34.668396 4.968400
								CHANNELS 3 Xrotation Yrotation Zrotation
								End Site
								{
									OFFSET 0.000000 0.000000 0.000000
								}
							}
						}
					}
					JOINT LeftShoulder
					{
						OFFSET 3.288150 8.794197 -1.372250
						CHANNELS 3 Xrotation Yrotation Zrotation
						JOINT LeftShoulder_split
						{
							OFFSET 3.288150 8.794197 -1.372250
							CHANNELS 3 Xrotation Yrotation Zrotation
							JOINT LeftArm
							{
								OFFSET 11.953299 -2.279007 -0.146200
								CHANNELS 3 Xrotation Yrotation Zrotation
								JOINT LeftForeArm
								{
									OFFSET 18.448900 0.000000 0.000000
									CHANNELS 3 Xrotation Yrotation Zrotation
									JOINT LeftHand
									{
										OFFSET 29.527798 0.000000 0.000000
										CHANNELS 3 Xrotation Yrotation Zrotation
										JOINT LeftHandThumb1
										{
											OFFSET 10.739754 -2.369614 9.225399
											CHANNELS 3 Xrotation Yrotation Zrotation
											JOINT LeftHandThumb2
											{
												OFFSET 4.926170 -2.844131 2.844125
												CHANNELS 3 Xrotation Yrotation Zrotation
												JOINT LeftHandThumb3
												{
													OFFSET 4.614891 -2.664413 2.664409
													CHANNELS 3 Xrotation Yrotation Zrotation
													JOINT LeftHandThumb4
													{
														OFFSET 4.432465 -2.559082 2.559083
														CHANNELS 3 Xrotation Yrotation Zrotation
														End Site
														{
															OFFSET 0.000000 0.000000 0.000000
														}
													}
												}
											}
										}
										JOINT LeftHandIndex1
										{
											OFFSET 26.467674 0.187653 6.405298
											CHANNELS 3 Xrotation Yrotation Zrotation
											JOINT LeftHandIndex2
											{
												OFFSET 8.792900 0.000000 0.000000
												CHANNELS 3 Xrotation Yrotation Zrotation
												JOINT LeftHandIndex3
												{
													OFFSET 10.075203 0.000000 0.000000
													CHANNELS 3 Xrotation Yrotation Zrotation
													End Site
													{
														OFFSET 0.000000 0.000000 0.000000
													}
												}
											}
										}
										JOINT LeftHandMiddle1
										{
											OFFSET 25.764404 0.000000 0.000000
											CHANNELS 3 Xrotation Yrotation Zrotation
											JOINT LeftHandMiddle2
											{
												OFFSET 9.393974 0.000000 0.000000
												CHANNELS 3 Xrotation Yrotation Zrotation
												JOINT LeftHandMiddle3
												{
													OFFSET 10.771950 0.000000 0.000000
													CHANNELS 3 Xrotation Yrotation Zrotation
													End Site
													{
														OFFSET 0.000000 0.000000 0.000000
													}
												}
											}
										}
										JOINT LeftHandRing1
										{
											OFFSET 24.660927 0.144547 -6.225808
											CHANNELS 3 Xrotation Yrotation Zrotation
											JOINT LeftHandRing2
											{
												OFFSET 9.393799 0.000000 0.000000
												CHANNELS 3 Xrotation Yrotation Zrotation
												JOINT LeftHandRing3
												{
													OFFSET 9.928497 0.000000 0.000000
													CHANNELS 3 Xrotation Yrotation Zrotation
													End Site
													{
														OFFSET 0.000000 0.000000 0.000000
													}
												}
											}
										}
										JOINT LeftHandPinky1
										{
											OFFSET 23.655350 0.125290 -12.815412
											CHANNELS 3 Xrotation Yrotation Zrotation
											JOINT LeftHandPinky2
											{
												OFFSET 8.425102 0.000000 0.000000
												CHANNELS 3 Xrotation Yrotation Zrotation
												JOINT LeftHandPinky3
												{
													OFFSET 8.147003 0.000000 0.000000
													CHANNELS 3 Xrotation Yrotation Zrotation
													End Site
													{
														OFFSET 0.000000 0.000000 0.000000
													}
												}
											}
										}
									}
								}
							}
						}
					}
					JOINT RightShoulder
					{
						OFFSET -3.249400 8.794197 -1.372250
						CHANNELS 3 Xrotation Yrotation Zrotation
						JOINT RightShoulder_split
						{
							OFFSET -3.249400 8.794197 -1.372250
							CHANNELS 3 Xrotation Yrotation Zrotation
							JOINT RightArm
							{
								OFFSET -11.953299 -2.279007 -0.146200
								CHANNELS 3 Xrotation Yrotation Zrotation
								JOINT RightForeArm
								{
									OFFSET -18.448900 0.000000 0.000000
									CHANNELS 3 Xrotation Yrotation Zrotation
									JOINT RightHand
									{
										OFFSET -29.527802 0.000000 0.000000
										CHANNELS 3 Xrotation Yrotation Zrotation
										JOINT RightHandThumb1
										{
											OFFSET -10.739754 -2.369614 9.225399
											CHANNELS 3 Xrotation Yrotation Zrotation
											JOINT RightHandThumb2
											{
												OFFSET -4.926170 -2.844131 2.844125
												CHANNELS 3 Xrotation Yrotation Zrotation
												JOINT RightHandThumb3
												{
													OFFSET -4.614891 -2.664413 2.664409
													CHANNELS 3 Xrotation Yrotation Zrotation
													JOINT RightHandThumb4
													{
														OFFSET -4.432465 -2.559082 2.559083
														CHANNELS 3 Xrotation Yrotation Zrotation
														End Site
														{
															OFFSET 0.000000 0.000000 0.000000
														}
													}
												}
											}
										}
										JOINT RightHandIndex1
										{
											OFFSET -26.467674 0.187653 6.405298
											CHANNELS 3 Xrotation Yrotation Zrotation
											JOINT RightHandIndex2
											{
												OFFSET -8.792900 0.000000 0.000000
												CHANNELS 3 Xrotation Yrotation Zrotation
												JOINT RightHandIndex3
												{
													OFFSET -10.075203 0.000000 0.000000
													CHANNELS 3 Xrotation Yrotation Zrotation
													End Site
													{
														OFFSET 0.000000 0.000000 0.000000
													}
												}
											}
										}
										JOINT RightHandMiddle1
										{
											OFFSET -25.764404 0.000000 0.000000
											CHANNELS 3 Xrotation Yrotation Zrotation
											JOINT RightHandMiddle2
											{
												OFFSET -9.393974 0.000000 0.000000
												CHANNELS 3 Xrotation Yrotation Zrotation
												JOINT RightHandMiddle3
												{
													OFFSET -10.771950 0.000000 0.000000
													CHANNELS 3 Xrotation Yrotation Zrotation
													End Site
													{
														OFFSET 0.000000 0.000000 0.000000
													}
												}
											}
										}
										JOINT RightHandRing1
										{
											OFFSET -24.660927 0.144547 -6.225808
											CHANNELS 3 Xrotation Yrotation Zrotation
											JOINT RightHandRing2
											{
												OFFSET -9.393799 0.000000 0.000000
												CHANNELS 3 Xrotation Yrotation Zrotation
												JOINT RightHandRing3
												{
													OFFSET -9.928497 0.000000 0.000000
													CHANNELS 3 Xrotation Yrotation Zrotation
													End Site
													{
														OFFSET 0.000000 0.000000 0.000000
													}
												}
											}
										}
										JOINT RightHandPinky1
										{
											OFFSET -23.655350 0.125290 -12.815412
											CHANNELS 3 Xrotation Yrotation Zrotation
											JOINT RightHandPinky2
											{
												OFFSET -8.425102 0.000000 0.000000
												CHANNELS 3 Xrotation Yrotation Zrotation
												JOINT RightHandPinky3
												{
													OFFSET -8.147003 0.000000 0.000000
													CHANNELS 3 Xrotation Yrotation Zrotation
													End Site
													{
														OFFSET 0.000000 0.000000 0.000000
													}
												}
											}
										}
									}
								}
							}
						}
					}
				}
			}
		}
	}
	JOINT LeftUpLeg
	{
		OFFSET 11.394100 -6.187798 -0.413800
		CHANNELS 3 Xrotation Yrotation Zrotation
		JOINT LeftLeg
		{
			OFFSET 0.430247 -32.302673 3.732800
			CHANNELS 3 Xrotation Yrotation Zrotation
			JOINT LeftFoot
			{
				OFFSET -0.430247 -48.264931 -6.423300
				CHANNELS 3 Xrotation Yrotation Zrotation
				JOINT LeftToeBase
				{
					OFFSET 4.230900 -16.068199 23.438400
					CHANNELS 3 Xrotation Yrotation Zrotation
					JOINT LeftToe_End
					{
						OFFSET 4.510700 0.695400 19.974600
						CHANNELS 3 Xrotation Yrotation Zrotation
						End Site
						{
							OFFSET 0.000000 0.000000 0.000000
						}
					}
				}
			}
		}
	}
	JOINT RightUpLeg
	{
		OFFSET -11.333700 -6.187798 -0.413800
		CHANNELS 3 Xrotation Yrotation Zrotation
		JOINT RightLeg
		{
			OFFSET -0.430392 -32.302628 3.733000
			CHANNELS 3 Xrotation Yrotation Zrotation
			JOINT RightFoot
			{
				OFFSET 0.430392 -48.264973 -6.423500
				CHANNELS 3 Xrotation Yrotation Zrotation
				JOINT RightToeBase
				{
					OFFSET -4.230900 -16.068199 23.438400
					CHANNELS 3 Xrotation Yrotation Zrotation
					JOINT RightToe_End
					{
						OFFSET -4.510700 0.695400 19.974600
						CHANNELS 3 Xrotation Yrotation Zrotation
						End Site
						{
							OFFSET 0.000000 0.000000 0.000000
						}
					}
				}
			}
		}
	}
}
MOTION
Frames: 5
Frame Time: 0.016667
0.327155 95.293755 0.280219 1.619154 155.668672 2.414452 5.548011 0.034362 -0.745695 11.095623 0.009766 -0.734627 0.000000 0.000000 0.000000 11.095632 0.009768 -0.734626 -10.509368 -1.525004 -3.378805 -17.396263 -3.946707 2.467846 -0.000000 0.000001 0.000000 9.458522 -6.444345 -14.996466 0.000000 0.000000 0.000000 -9.678078 10.609540 -35.777214 0.014688 -55.260964 0.179014 23.479006 -9.549563 10.015910 7.350845 -14.484219 -10.934846 -1.067064 0.182841 1.946097 0.000010 -0.000006 -0.000007 0.000000 -0.000001 -0.000002 5.776117 -9.584541 -10.641328 0.033752 0.666535 -10.636457 -0.000000 0.000000 0.000004 1.641876 7.127205 -4.239655 -0.187954 -0.789343 -15.969042 0.000000 0.000000 -0.000001 1.677297 11.039963 -8.046070 -0.183069 -2.876869 -23.912154 0.000003 -0.000001 0.000003 0.734588 28.047559 -16.218779 -0.849541 -6.142169 -29.148249 0.000000 -0.000000 -0.000000 -3.413062 0.044914 -0.357074 0.000000 0.000000 0.000000 -8.509097 -11.385600 60.673574 -0.093533 56.136806 -0.118065 33.241352 -12.824966 -17.733570 -4.978386 12.391672 9.407255 -1.210142 -0.220449 -2.121005 0.000000 0.000004 -0.000004 0.000001 0.000001 0.000002 10.258608 13.576553 6.067473 0.012527 -0.647881 4.076586 0.000000 0.000000 -0.000001 -1.738476 -1.670998 3.393790 -0.252708 0.798108 21.448281 -0.000001 0.000001 0.000002 -0.824275 -13.700973 18.348837 -0.242213 2.213611 16.221206 -0.000000 0.000000 -0.000000 -4.380752 -23.900594 30.060308 -0.233915 5.125295 12.870304 0.000000 -0.000000 0.000002 -25.154086 -6.884930 9.983606 26.439300 0.005429 -0.948162 -0.255487 -3.122672 -14.151689 0.002987 -0.026201 0.062610 -0.000000 -0.000002 -0.000000 -23.231051 -11.254929 -20.809122 38.797995 -0.026052 1.371630 -13.303734 -7.954429 10.131122 -0.012198 -0.109705 0.262090 0.000000 0.000000 0.000000 
0.287353 95.110428 0.295959 1.091808 154.727882 2.458811 5.540954 -0.009735 -0.781735 11.081763 -0.077123 -0.835933 0.000000 0.000000 0.000000 11.081757 -0.077136 -0.835929 -10.962303 -1.919705 -3.250078 -17.063819 -4.417246 3.165608 0.000000 0.000001 -0.000000 9.412428 -6.453410 -14.019421 0.000000 0.000000 0.000000 -8.662134 10.477084 -35.400498 0.010278 -54.481923 0.179209 23.395500 -10.993431 10.180219 7.349530 -14.482217 -10.935196 -1.067030 0.182841 1.946030 0.000010 -0.000007 -0.000006 -0.000001 0.000000 -0.000002 5.776066 -9.584130 -10.640217 0.033748 0.666553 -10.636316 0.000000 0.000000 -0.000002 1.641806 7.127179 -4.239316 -0.187947 -0.789348 -15.968858 0.000000 -0.000000 -0.000004 1.677152 11.039870 -8.045504 -0.183069 -2.876810 -23.911727 0.000003 0.000001 -0.000002 0.734506 28.047040 -16.218533 -0.849495 -6.142061 -29.147716 -0.000001 -0.000001 0.000000 -3.299626 0.252116 -0.421621 0.000000 0.000000 0.000000 -8.140536 -9.974496 59.691851 -0.093552 55.025408 -0.121954 32.733074 -11.033745 -18.050313 -4.980120 12.389512 9.406446 -1.210086 -0.220425 -2.120952 -0.000002 0.000004 0.000001 -0.000000 0.000001 0.000004 10.258452 13.576043 6.066700 0.012527 -0.647869 4.076579 0.000002 -0.000002 -0.000001 -1.738413 -1.671048 3.393417 -0.252707 0.798101 21.447900 0.000001 0.000001 0.000001 -0.824410 -13.700841 18.347094 -0.242221 2.213572 16.220926 -0.000000 0.000000 -0.000002 -4.381154 -23.900181 30.057491 -0.233937 5.125183 12.870096 -0.000001 0.000000 0.000001 -26.145110 -5.773961 10.689810 27.416031 -0.008238 -0.982923 -0.685220 -3.585809 -14.088571 0.346321 0.059111 -0.008209 -0.000000 0.000001 -0.000000 -24.137357 -10.364033 -20.385524 39.362196 -0.023314 1.391434 -13.320630 -7.837283 10.093599 -0.012204 -0.109712 0.262086 0.000000 0.000002 0.000000 
0.234663 94.829308 0.313469 0.299826 153.346408 2.555975 5.531852 -0.055295 -0.816056 11.063663 -0.166391 -0.951348 0.000000 0.000000 0.000000 11.063663 -0.166376 -0.951351 -11.367806 -2.308019 -3.134613 -16.612924 -4.878092 3.873084 -0.000000 -0.000001 -0.000000 9.287381 -6.480152 -13.016979 0.000000 0.000000 0.000000 -7.148091 10.286349 -34.868129 0.002822 -53.374390 0.177096 23.239194 -12.347011 10.353347 7.347649 -14.479371 -10.935729 -1.066965 0.182807 1.945971 0.000008 -0.000006 -0.000008 -0.000000 -0.000000 -0.000001 5.775935 -9.583590 -10.639061 0.033763 0.666515 -10.636088 -0.000000 -0.000001 0.000001 1.641731 7.127109 -4.238970 -0.187941 -0.789335 -15.968595 -0.000001 0.000001 -0.000004 1.676993 11.039724 -8.044913 -0.183052 -2.876731 -23.911099 -0.000000 0.000000 0.000001 0.734404 28.046309 -16.218177 -0.849430 -6.141887 -29.146938 0.000000 -0.000000 -0.000000 -3.131419 0.557780 -0.519412 0.000000 0.000000 0.000000 -7.620048 -7.972477 58.297304 -0.094684 53.382860 -0.125844 32.021467 -8.492661 -18.497062 -4.982265 12.386636 9.405927 -1.210026 -0.220405 -2.120867 -0.000002 0.000002 -0.000000 0.000001 0.000001 -0.000002 10.258133 13.575362 6.065987 0.012520 -0.647862 4.076554 -0.000001 0.000002 -0.000002 -1.738352 -1.671121 3.393036 -0.252692 0.798080 21.447380 0.000002 -0.000001 -0.000003 -0.824534 -13.700617 18.345292 -0.242214 2.213514 16.220536 0.000000 -0.000000 0.000000 -4.381537 -23.899573 30.054577 -0.233945 5.125053 12.869831 0.000000 0.000000 0.000003 -27.492662 -4.566121 11.625844 28.797444 -0.023613 -1.031666 -1.307814 -3.833289 -14.084623 0.548980 0.188227 -0.001802 0.000000 0.000002 -0.000000 -25.482773 -9.143905 -19.809980 40.167198 -0.017883 1.419633 -13.332106 -7.563574 10.047608 -0.012199 -0.109725 0.262088 -0.000000 0.000002 0.000000 
0.135200 94.295853 0.340119 -1.211629 150.763394 2.837732 5.516322 -0.105356 -0.849723 11.032437 -0.262065 -1.106973 0.000000 0.000000 0.000000 11.032436 -0.262063 -1.106977 -11.644140 -2.672801 -3.043678 -15.844133 -5.313091 4.602629 0.000000 -0.000000 0.000000 8.947998 -6.559115 -11.945464 0.000000 0.000000 0.000000 -4.288841 9.928074 -33.890900 -0.012125 -51.337027 0.169262 22.892547 -13.455982 10.544939 7.344189 -14.474168 -10.936694 -1.066919 0.182788 1.945941 0.000008 -0.000007 -0.000010 -0.000001 0.000000 0.000002 5.775577 -9.582688 -10.637821 0.033743 0.666491 -10.635714 0.000000 -0.000000 -0.000001 1.641601 7.126968 -4.238595 -0.187939 -0.789319 -15.968130 -0.000000 0.000000 0.000001 1.676793 11.039385 -8.044200 -0.183014 -2.876577 -23.909974 -0.000000 -0.000000 -0.000000 0.734198 28.044951 -16.217545 -0.849273 -6.141621 -29.145534 -0.000000 0.000001 0.000001 -2.814930 1.132002 -0.706646 0.000000 0.000000 0.000000 -6.670054 -4.296621 55.732663 -0.098517 50.295949 -0.129483 30.742927 -3.827458 -19.312411 -4.985593 12.381775 9.406294 -1.209965 -0.220389 -2.120797 -0.000003 0.000003 -0.000007 -0.000000 -0.000000 0.000003 10.257412 13.574220 6.065339 0.012523 -0.647839 4.076507 -0.000000 -0.000001 -0.000001 -1.738275 -1.671264 3.392620 -0.252684 0.798060 21.446449 0.000001 0.000000 -0.000000 -0.824674 -13.700141 18.343212 -0.242202 2.213416 16.219819 -0.000001 -0.000000 -0.000002 -4.381915 -23.898371 30.051217 -0.233919 5.124802 12.869274 -0.000000 0.000000 0.000002 -29.875763 -3.052155 13.223347 31.312681 -0.043564 -1.119268 -2.452224 -3.576576 -14.171709 0.522802 0.433765 -0.007235 0.000000 -0.000002 0.000000 -28.042375 -6.981802 -18.713544 41.640501 -0.009326 1.470570 -13.326819 -6.971509 9.976516 -0.012205 -0.109727 0.262086 0.000000 -0.000002 0.000000 
0.014073 93.603905 0.358654 -3.188079 147.482212 3.394752 5.499673 -0.156309 -0.884791 10.998612 -0.359421 -1.282566 0.000000 0.000000 0.000000 10.998605 -0.359424 -1.282563 -11.857294 -3.028259 -2.963671 -14.919155 -5.734513 5.352190 0.000000 0.000001 -0.000000 8.482523 -6.666479 -10.834777 0.000000 0.000000 0.000000 -0.632542 9.485273 -32.710975 -0.030022 -48.869648 0.157738 22.395535 -14.419996 10.753820 7.339996 -14.467848 -10.937862 -1.066889 0.182808 1.945875 0.000010 -0.000007 -0.000009 -0.000001 0.000001 -0.000001 5.775080 -9.581605 -10.636576 0.033733 0.666479 -10.635228 -0.000001 0.000000 0.000001 1.641472 7.126766 -4.238179 -0.187937 -0.789299 -15.967538 0.000000 0.000000 -0.000003 1.676576 11.038951 -8.043488 -0.182957 -2.876412 -23.908572 0.000000 0.000000 0.000000 0.733942 28.043324 -16.216773 -0.849108 -6.141259 -29.143796 -0.000000 0.000001 0.000000 -2.413226 1.858732 -0.950990 0.000000 0.000000 0.000000 -5.525521 0.166517 52.613770 -0.105292 46.386455 -0.129168 29.238947 1.836404 -20.301563 -4.989454 12.375979 9.407138 -1.209905 -0.220379 -2.120737 -0.000002 0.000005 -0.000006 -0.000001 -0.000001 -0.000000 10.256499 13.572870 6.064764 0.012526 -0.647810 4.076469 0.000001 -0.000001 -0.000001 -1.738193 -1.671437 3.392183 -0.252665 0.798026 21.445307 0.000002 -0.000001 0.000002 -0.824797 -13.699522 18.341092 -0.242173 2.213291 16.218936 0.000000 -0.000000 -0.000001 -4.382269 -23.896885 30.047781 -0.233885 5.124499 12.868670 0.000001 -0.000000 0.000002 -32.721626 -1.649567 15.185087 34.391618 -0.060496 -1.224808 -3.887890 -2.796680 -14.385118 0.549679 0.752401 -0.007209 0.000000 -0.000000 -0.000000 -31.390009 -4.600079 -17.329107 43.446010 -0.003942 1.531850 -13.290110 -5.918954 9.905008 -0.012199 -0.109686 0.262092 -0.000000 -0.000001 0.000000 
